<mxfile host="app.diagrams.net" modified="2021-03-15T20:25:45.077Z" agent="5.0 (Windows NT 10.0; Win64; x64) AppleWebKit/537.36 (KHTML, like Gecko) Chrome/89.0.4389.82 Safari/537.36" etag="svfNr8EohHnJoe0i6ihQ" version="14.4.8" type="github">
  <diagram id="WT_lnRqrg5Ym0wtdkimR" name="Page-1">
    <mxGraphModel dx="1038" dy="548" grid="1" gridSize="10" guides="1" tooltips="1" connect="1" arrows="1" fold="1" page="1" pageScale="1" pageWidth="850" pageHeight="1100" math="0" shadow="0">
      <root>
        <mxCell id="0" />
        <mxCell id="1" parent="0" />
        <mxCell id="Q0kFrNGrZZAoQRoOs5nT-11" value="Napvihar robotot Ã©r" style="shape=umlFrame;whiteSpace=wrap;html=1;width=70;height=40;" vertex="1" parent="1">
          <mxGeometry x="50" y="30" width="550" height="340" as="geometry" />
        </mxCell>
        <mxCell id="Q0kFrNGrZZAoQRoOs5nT-1" value="SkeletonController" style="html=1;" vertex="1" parent="1">
          <mxGeometry x="100" y="210" width="110" height="50" as="geometry" />
        </mxCell>
        <mxCell id="Q0kFrNGrZZAoQRoOs5nT-2" value="r: Robot" style="html=1;" vertex="1" parent="1">
          <mxGeometry x="360" y="50" width="110" height="50" as="geometry" />
        </mxCell>
        <mxCell id="Q0kFrNGrZZAoQRoOs5nT-3" value="a: Aszteroida" style="html=1;" vertex="1" parent="1">
          <mxGeometry x="440" y="290" width="110" height="50" as="geometry" />
        </mxCell>
        <mxCell id="Q0kFrNGrZZAoQRoOs5nT-4" value="" style="endArrow=none;html=1;" edge="1" parent="1" source="Q0kFrNGrZZAoQRoOs5nT-1" target="Q0kFrNGrZZAoQRoOs5nT-2">
          <mxGeometry width="50" height="50" relative="1" as="geometry">
            <mxPoint x="380" y="290" as="sourcePoint" />
            <mxPoint x="430" y="240" as="targetPoint" />
          </mxGeometry>
        </mxCell>
        <mxCell id="Q0kFrNGrZZAoQRoOs5nT-5" value="" style="endArrow=none;html=1;" edge="1" parent="1" source="Q0kFrNGrZZAoQRoOs5nT-1" target="Q0kFrNGrZZAoQRoOs5nT-3">
          <mxGeometry width="50" height="50" relative="1" as="geometry">
            <mxPoint x="210" y="267.5" as="sourcePoint" />
            <mxPoint x="400" y="422.5" as="targetPoint" />
          </mxGeometry>
        </mxCell>
        <mxCell id="Q0kFrNGrZZAoQRoOs5nT-6" value="2. &amp;lt;&amp;lt;create&amp;gt;&amp;gt; Telepes(a)" style="html=1;verticalAlign=bottom;endArrow=block;" edge="1" parent="1">
          <mxGeometry x="-0.8689" y="22" width="80" relative="1" as="geometry">
            <mxPoint x="230" y="170" as="sourcePoint" />
            <mxPoint x="310" y="120" as="targetPoint" />
            <mxPoint as="offset" />
          </mxGeometry>
        </mxCell>
        <mxCell id="Q0kFrNGrZZAoQRoOs5nT-7" value="1. &amp;lt;&amp;lt;create&amp;gt;&amp;gt;" style="html=1;verticalAlign=bottom;endArrow=block;" edge="1" parent="1">
          <mxGeometry x="0.2667" y="9" width="80" relative="1" as="geometry">
            <mxPoint x="270" y="240" as="sourcePoint" />
            <mxPoint x="360" y="270" as="targetPoint" />
            <mxPoint as="offset" />
          </mxGeometry>
        </mxCell>
        <mxCell id="Q0kFrNGrZZAoQRoOs5nT-8" value="" style="endArrow=none;html=1;" edge="1" parent="1" source="Q0kFrNGrZZAoQRoOs5nT-3" target="Q0kFrNGrZZAoQRoOs5nT-2">
          <mxGeometry width="50" height="50" relative="1" as="geometry">
            <mxPoint x="560" y="130" as="sourcePoint" />
            <mxPoint x="610" y="80" as="targetPoint" />
          </mxGeometry>
        </mxCell>
        <mxCell id="Q0kFrNGrZZAoQRoOs5nT-9" value="5. MezoBeallit(a)" style="endArrow=classic;html=1;" edge="1" parent="1">
          <mxGeometry x="0.3" y="28" width="50" height="50" relative="1" as="geometry">
            <mxPoint x="440" y="220" as="sourcePoint" />
            <mxPoint x="420" y="160" as="targetPoint" />
            <mxPoint as="offset" />
          </mxGeometry>
        </mxCell>
        <mxCell id="Q0kFrNGrZZAoQRoOs5nT-10" value="4. HajoErkezik()" style="endArrow=classic;html=1;" edge="1" parent="1">
          <mxGeometry x="-0.0137" y="27" width="50" height="50" relative="1" as="geometry">
            <mxPoint x="450" y="130" as="sourcePoint" />
            <mxPoint x="480" y="210" as="targetPoint" />
            <mxPoint as="offset" />
          </mxGeometry>
        </mxCell>
      </root>
    </mxGraphModel>
  </diagram>
</mxfile>
